<svg xmlns="http://www.w3.org/2000/svg" width="5953.333" height="5952" version="1.0" viewBox="0 0 4465 4464"><path d="M947.5.6c-1.6.2-7.5.8-13 1.4-9.8 1-18 2.1-32 4.1-13.6 1.9-18.3 2.7-56 9.9-36.8 6.9-104.6 26.4-144 41.2-19.4 7.3-37.4 14.3-42 16.4-2.7 1.2-7.9 3.4-11.5 4.9-22.9 9.5-70.8 32.8-90.8 44.2-5.2 2.9-9.6 5.3-9.8 5.3-.2 0-3.8 2.1-8.1 4.6-4.3 2.6-9.1 5.4-10.8 6.4-14.8 8.5-37.4 23.1-56.5 36.3-76.9 53.3-141.7 114.2-201.5 189.2-24.5 30.6-53.7 72.8-73.3 105.5-7.5 12.5-17.2 29.2-17.2 29.6 0 .2-1.3 2.5-2.8 5.1-7.2 12.3-26.7 50.1-33.9 65.8-2.3 4.9-6.2 13.4-8.7 18.7-2.5 5.3-4.6 9.9-4.6 10.2 0 .2-1.5 3.7-3.4 7.8-4.3 9.4-26.1 64.6-32 80.8-8.6 24-21.7 64.1-26.6 81.5-.5 1.6-2.5 8.6-4.5 15.5C47.1 845.6 33 910.2 22 980.5c-3.4 21.9-8.8 66.3-11 91.5-4.4 50.5-5.4 76-5.4 131 0 55.3 1.1 80.8 5.4 127 2 20.4 6.5 57.1 9 73 3.3 20.1 4.5 27.1 9.1 50 5.7 28.1 6.9 33.6 12 53.5 7.1 28.1 7.4 28.9 15.9 57 4.8 15.9 16.9 50.4 22 63 .4 1.1 3.1 7.8 6 15 17.3 43.3 44.2 97.9 73.4 148.9 25.7 45 49 80.8 78.4 120.6 15.3 20.7 51.4 65.9 70.3 88 63.5 74.4 107.8 119.7 166.9 171 57.7 50 83.5 71.5 106.2 88.5 7 5.3 8.4 7 6.9 8.9-.9 1.1-7.1 12.2-14.8 26.6-18 33.4-59.7 116.6-71.1 142-5.1 11.3-7.4 16.4-8.7 19.5-.7 1.6-2.2 5-3.3 7.5-2.4 5.5-15.2 37.4-18 45-1.1 3-3.4 9.2-5.1 13.6-1.7 4.5-4.2 11.7-5.7 16-1.4 4.4-4.5 13.5-6.8 20.4-4.4 12.9-9.8 29.9-13.6 43-1.2 4.1-2.6 8.6-3 10-.4 1.4-1.3 4.3-1.9 6.5-.6 2.2-1.9 7-3 10.6-7.5 25.6-20.9 85.5-25.5 114.4-.9 5.5-2.1 12.5-2.6 15.5-.9 5.5-1.2 7.5-3.1 22-12 92-11.3 171.3 2.2 256.5 2.9 18 3.3 20 7.4 39 8 37.2 20.7 80.8 32.1 110.5 18.1 47.1 36.2 85 61.4 128.5 6.6 11.5 10.9 18.3 22.1 35.7 44 68 86.7 115.6 178.4 199 14.6 13.2 23.7 20.9 68.5 57.6 11.8 9.7 24.2 19.9 27.5 22.7 19.4 16.7 82 66.6 119 94.9 18.8 14.4 30.9 23.7 40 30.6 3.3 2.6 16.8 12.9 30 23s26.7 20.5 30 23c3.3 2.5 10.7 8.2 16.5 12.6 5.8 4.4 15 11.5 20.5 15.7 13.8 10.6 49.6 37.6 63.5 47.8 10.4 7.7 22.4 16.5 45.4 33.3 4.5 3.3 10.4 7.6 13.1 9.6 30.3 22.4 76.1 54.9 109.1 77.6 43 29.7 52.8 36.2 89.4 60 43.7 28.4 72.6 47.5 151.5 99.9 147.8 98.2 226.1 148.3 285 182.5 8.6 5 22.8 13 23 13 .2 0 4.8 2.5 10.2 5.6 8.5 4.8 51.3 26.2 61.3 30.7 1.9.8 6 2.6 9 4 3 1.3 11.1 4.8 18 7.6 6.9 2.9 13.4 5.6 14.5 6.1 12.9 5.5 61.4 22.6 71 25 1.7.5 7.5 2.1 13 3.8 5.5 1.6 12.3 3.5 15 4.2 2.8.6 6.1 1.6 7.5 2 1.4.5 9.7 2.5 18.5 4.5 22.6 5.1 23.6 5.3 27.5 6 31.2 5.5 29.5 5.3 62 9.7 13.7 1.9 148.3 1.9 162.5 0 19.8-2.7 31.1-4.3 39.5-5.8 4.7-.8 10.8-1.9 13.5-2.4 66.1-11.6 138.9-36.4 210-71.6 30.8-15.2 38.4-19.3 82.4-44.6 1.9-1.1 5.9-3.5 8.8-5.4 2.9-1.9 5.5-3.4 5.8-3.4.2 0 3.9-2.2 8.2-4.9 4.3-2.6 16.2-10 26.5-16.4 14.8-9.2 66-42 100.6-64.3 2.9-1.8 7.6-4.9 10.5-6.8 17.1-11 27.1-17.5 42.7-27.8 9.6-6.3 24.7-16.1 33.5-21.8 18.9-12.2 153.4-101.8 188.5-125.6 36.8-25 112.6-77.5 149.4-103.4 91.9-64.9 154.4-110.3 234.1-170.1 53.4-40 54.9-41.1 96.5-73.2 24.3-18.8 42.6-33.1 100.9-79 4.7-3.7 10.2-8 12.1-9.5 1.9-1.5 11.7-9.2 21.8-17.2 10.1-8 19.6-15.4 21.1-16.5 10.1-7.5 59.7-47.8 86.1-69.9 67.6-56.6 126.9-114.3 172.9-168 28.2-33 64.4-83 83.6-115.6 24-40.8 45.1-84.4 58.7-121.5 8.1-22 10.2-28.5 16.6-50 5.7-19.3 13.6-51.4 16.2-65.5 6.7-37.4 9.3-56.1 12.2-89.5 1.6-18.2 1.5-94.2 0-113.5-2.5-30.2-3.5-39.2-6.4-62-5.4-41.6-9.1-63-18.8-108-2.8-13.3-12.4-51.1-17.1-68-2.4-8.7-3.1-11.3-5.3-19.5-.9-3.3-3.2-10.7-5-16.5-1.8-5.8-5.2-16.6-7.6-24-7.2-22.9-13-40-18-53.5-1-2.8-4.4-12-7.5-20.5-9.4-25.9-29-74.7-39.9-99.5-.8-1.7-3-6.8-5.1-11.5-2.1-4.7-4.9-11-6.3-14-1.3-3-3.8-8.4-5.4-12-10.1-22.4-36.5-75.9-47.8-96.7l-6-11.1 18.7-16.9c76.1-68.1 134.3-129 186.8-195.4 54.5-68.8 96.2-130.7 128.2-190.4 8.6-16 31-61.6 38.3-78 1.2-2.8 3.3-7.4 4.6-10.3 1.3-2.9 2.4-5.4 2.4-5.7 0-.2 1.3-3.2 2.9-6.7 4.9-10.8 15.7-38 26.2-66.3 11.6-31.4 27.6-84.6 36.2-120.5 10-41.7 15.8-71.7 20.7-107.8 6.8-49.7 9.6-84.7 12.1-150.9 2.2-57.6-2.7-148.5-12.1-223.1-.5-4.5-1.4-11.7-2-16-1.3-10.6-5.5-38.2-8-52.7-1.2-6.6-2.5-14.5-3-17.5-1.7-11.1-12.1-61-16.5-79.5-1.4-6.1-3.5-14.6-4.5-19-3.2-13.5-12.6-47.5-17-62-1-3.3-3.3-10.7-5-16.5-15.1-49.9-38.7-112.5-58.1-153.9-2.7-5.7-4.9-10.5-4.9-10.7 0-.2-4.4-9.3-9.8-20.2-53.9-108.1-118.3-197.3-205.7-284.8-38-38.1-63.5-60.2-106-92.1-16.5-12.3-54.2-38.1-65-44.3-1.6-1-7.3-4.4-12.5-7.6-9.1-5.5-16.3-9.7-26-15.2-2.5-1.4-7.4-4.1-11-6.2-8.2-4.6-54-27.4-64-31.9-4.1-1.8-14.5-6.2-23-9.7-8.5-3.6-16.4-6.9-17.5-7.4-1.1-.4-7.6-3-14.5-5.5-6.9-2.6-13.4-5.1-14.5-5.6-11.7-5-68.4-22.1-94-28.3-14-3.4-17.4-4.2-28-6.7-8.3-1.9-25.4-5.1-42.5-8-6.4-1.1-23.2-3.5-34-4.9-4.1-.5-12-1.5-17.5-2.2-14.3-1.9-163.7-1.9-178 0-22.3 2.9-26.5 3.5-38.5 5.4-11.6 1.8-31.2 5.6-40.5 7.8-17.8 4.1-31.4 7.8-55 15-14.3 4.4-42.9 15.1-56.2 21.1-2.4 1-4.5 1.9-4.8 1.9-1.3 0-41.7 20.2-50.9 25.4-5.4 3.1-10 5.6-10.1 5.6-.5 0-14.2 8.2-21 12.5-70.3 44.6-120 88.5-193 170.5-16.9 19-47.8 50.3-69.5 70.5-34 31.6-49 47.4-80.9 84.8-10.4 12.2-24 27.2-30.2 33.2-6.3 6.1-20.9 20.2-32.4 31.5-35.9 34.9-88 84.2-117.5 111.1-19.4 17.7-41.3 34.9-44.4 34.9-.9 0-6-2-11.3-4.5-5.2-2.5-9.7-4.5-9.9-4.5-.2 0-2.6-1-5.2-2.1-8.4-3.8-10.6-4.7-19.2-7.9-4.7-1.7-9.4-3.5-10.5-4-2.6-1.2-26-9-30.5-10.2-1.9-.5-4.8-1.3-6.5-1.8-3.6-1-15.6-4.3-24-6.5-16.2-4.3-52.1-11.2-75.5-14.4-72.1-10-147.2-9.3-207.5 2-59.2 11-111.5 28-159.9 52-11.7 5.8-12 5.9-14 4.1-1.2-1-12.9-10.8-26.1-21.7-13.2-11-27.8-23.7-32.5-28.4-4.7-4.7-17.5-16.8-28.5-27-20.6-19.1-43.1-40.1-61.5-57.6-5.8-5.5-18.3-17.2-27.8-26-17-15.6-25.5-24.6-39.7-41.5-26.3-31.4-45.2-51.8-83.6-90-19.5-19.5-42-42.5-49.9-51-83.3-89.9-162-160.4-221.5-198.7-53.8-34.7-115.3-61-177.5-76.1-14.7-3.6-29.3-6.8-37.5-8.2-13.4-2.4-22.8-3.9-31-5-4.9-.7-11.5-1.7-14.5-2.2-5.1-1-160.3-2.1-167.5-1.2zM1064 138.5c37.5 2.5 51.5 4.5 94.5 13.6 16.6 3.4 53.4 15.4 75 24.3 9 3.8 35 16.5 43.5 21.4 32.4 18.5 49 30.6 90.3 66 40.8 35 78.7 71.9 127.7 124.7 10.7 11.5 35.1 36.5 54.1 55.5 33.8 33.8 50.3 51.4 72.4 77.5 14.4 16.9 30.6 34.5 38.6 41.9 10.8 10 39.8 37.4 50.9 48.1 5.8 5.6 21.7 20.4 35.5 33.1 13.7 12.6 29.9 27.9 36 34.1 6 6.1 14.4 14 18.6 17.5 4.1 3.5 11.5 9.7 16.4 13.8 62.8 53.1 67.5 56.9 102 82.1l18 13.2 3-1.8c5.7-3.3 9-5.3 20.2-11.9 21.6-12.7 33.4-19.6 38.6-22.5 7.4-4 26.3-13.5 32.2-16.2 2.8-1.2 7.7-3.4 11-4.9 17.3-7.9 54.8-20.3 75.5-25 65.7-14.8 129.4-16.5 201-5.4 37 5.7 77.5 16.4 107.5 28.4 19.9 7.9 55.6 25.1 62.6 30.1 1.5 1 2.9 1.9 3.2 1.9.3 0 4.1 2.1 8.4 4.6 4.3 2.6 9.2 5.5 10.8 6.4 1.7 1 5.8 3.4 9.2 5.4l6.2 3.7 22.8-14.7c65.1-41.8 81.4-54.5 138.3-107.8 13.5-12.7 27-25.3 30-28 3-2.8 18.3-17.4 34-32.5 15.7-15.2 34.8-33.7 42.5-41.1 7.7-7.4 18.9-18.2 24.8-24 6-5.8 15.2-15.7 20.5-22 30-35.7 51.6-59.5 67.3-74 37.5-34.6 70.7-68 98.8-99.6 56.8-63.7 98-100.6 150-134.3 27.2-17.6 64-36.4 90.6-46.3 37.1-13.7 55.2-18.7 97-26.7 11.5-2.2 32.3-4.9 57-7.3 17.1-1.7 92.4-1.7 109.5 0 35 3.4 54.8 6.2 82 11.2 10.9 2 33.3 6.9 41 9 1.9.5 9.6 2.5 17 4.5 12.6 3.3 28.1 7.9 37.5 11 9.6 3.2 28.2 9.7 30 10.5 1.1.4 4.7 1.8 8 3 3.3 1.3 7.4 2.8 9 3.5 1.7.7 4.6 1.8 6.5 2.6 1.9.7 6.8 2.7 10.8 4.6 4.1 1.8 7.5 3.3 7.7 3.3.3 0 2.8 1.1 5.7 2.4 2.9 1.3 7.6 3.4 10.3 4.6 20.6 9.1 71.9 36.7 92.5 49.9 56.6 36 102 72.1 145.5 115.6 39.3 39.2 77.3 84.5 109.2 130 8.6 12.2 29 43.5 33.2 50.7 1 1.8 6 10.5 11.2 19.3 9.4 16.3 31.5 59.2 38.4 74.5 8 18.1 9 20.2 13 30 1.5 3.6 3.3 7.8 4 9.5 1.9 4.5 10 25.2 12.3 31.5 1.1 3 3.4 9.1 5 13.5 8.4 22.5 22.8 68.4 30.8 98 6.6 24.7 7.6 28.5 9.4 36.5 1.1 4.7 3.1 13.4 4.5 19.5 2.6 11.2 6.1 27.3 7.6 35.5.4 2.5 2.2 11.9 3.8 21 3.7 19.9 4.7 25.5 6.1 34.2.5 3.8 1.4 9.6 2 13 3.8 24.8 9 69.6 11 95.8.6 7.4 1.5 19.1 2 26 2.4 30.8 3.4 89.2 2.2 126.7-1.1 34.5-1.6 42.5-4.2 72.8-2.1 24.2-5 46.8-10 78.5-4.1 25.6-11 56.9-19.2 87-2.2 8-4.2 15.4-4.5 16.5-3.5 13.7-16.9 55-24.4 75.2-4 10.9-6.2 16.9-7.4 19.8-.7 1.6-1.8 4.6-2.6 6.5-.7 1.9-4.5 11.1-8.5 20.5-11.4 26.9-15.4 35.6-29 63-33.7 68.2-63 114.1-121 189.5-63.4 82.6-146.7 165.9-247.9 248-4.3 3.6-13.6 11.2-20.4 16.9-6.9 5.7-13.1 10.6-13.8 10.8-.7.3-1.3 1.2-1.3 2 0 1.5.9 3.2 14.3 27.3 13.8 24.9 15.3 27.7 22.7 41.5 2.4 4.4 4.6 8.4 5 9 .4.5 3.9 7.1 7.8 14.5s9.4 17.8 12.2 23c8.3 15.7 41 82.2 41 83.5 0 .2 1.7 4.1 3.9 8.7 6.2 13.4 9.1 19.8 9.1 20.3 0 .2 1.1 2.9 2.5 6 7.3 15.8 20.2 47.6 35.2 86.5 4.4 11.4 14.3 38.9 18.3 51 8.8 26.4 15.9 49.3 21.1 67.7 4.5 16 5.9 21.2 10 37.3 11.9 46.6 20.9 93.7 25.8 134.5 2.6 21.5 3.1 26.8 4.3 41 1.8 20.6 1.7 95.9 0 112.5-3.2 29.9-6.9 53.7-11.2 72.6-10.1 43.6-19.8 73.3-36.3 110.9-41.7 95.4-109.6 183.1-216.2 279.5-43.5 39.3-95.9 82.3-183.1 150.2-5.4 4.3-22 17.3-36.9 28.9-14.8 11.6-29.2 22.8-32 24.9-2.7 2.1-12.7 9.8-22.2 17.2-46 35.7-67.4 52.1-119.8 91.2-34.6 25.9-51.6 38.5-70.4 52.2-3.1 2.2-9.9 7.2-15.1 11-16 11.7-26.9 19.7-40.5 29.4-7.1 5.2-16.8 12.1-21.5 15.5-4.7 3.4-12.3 8.8-16.9 12.1-4.6 3.2-15.1 10.7-23.5 16.6-8.3 5.9-23 16.3-32.6 23-9.6 6.7-21.3 15-26 18.3-29.9 21.5-134.3 92.5-213 144.9-78.6 52.3-114.2 75.6-200.5 131-20.3 13.1-38.6 24.9-40.5 26.1-9.8 6.4-35.5 22.5-51.5 32.2-83.7 51.2-148.6 82.2-212.5 101.3-21 6.3-56.1 14.6-72 17-15.9 2.4-21.5 3.2-32.6 4.5-43.4 5.1-108.8 4.3-147.9-2-2.2-.3-6.9-1-10.5-1.6-11.8-1.8-28.4-4.9-37.5-6.9-21.2-4.8-37-9.1-63-17-14.1-4.3-41.6-14.4-56-20.5-1.6-.7-6.8-2.9-11.5-4.8-12.3-5.1-19.8-8.6-44.5-20.8-20.1-9.9-25.9-12.9-41-21.4-20.3-11.4-61.7-36.3-84.5-51-1.9-1.2-12.3-7.7-23-14.5-29.4-18.5-32.7-20.6-50.8-32.4-29.7-19.4-72.6-47.7-178.2-117.7-27.8-18.5-56.6-37.5-64-42.4-7.4-4.8-18-11.8-23.5-15.4-5.6-3.6-18.8-12.2-29.4-19.1-25.2-16.4-67.2-44.8-99.5-67.4-14.2-9.9-27.7-19.4-30-21-24.1-16.9-118-85.7-146.1-107-13.5-10.3-31.3-23.9-42-32.1-4.4-3.4-22.6-17.3-40.5-31s-35.2-26.9-38.5-29.5c-12.1-9.3-27.5-21.1-49.5-37.9-24.2-18.4-58.2-45.2-82-64.6-45.2-36.8-98.8-81.2-108-89.5-83.3-75-122.6-117-158.2-169.5-8.4-12.3-19.8-30.2-24.8-39-11.4-19.9-15.5-27.4-22.6-41.5-16.6-33.3-26.9-57.8-38.1-91-2.5-7.4-5-15.1-5.5-17-.5-1.9-1.3-4.9-1.8-6.5-6.6-23.3-10-37.4-14.6-61-7.5-39.1-11.4-81.5-11.4-125.5 0-21.8 1.7-59.7 3.4-75 .3-2.5 1-9 1.6-14.5 2.1-18.8 4-31.1 10-65 3.7-20.8 12-56.9 19.5-84 .9-3.3 2-7.4 2.5-9 1.8-6.8 9.2-31.3 10.7-35.5.8-2.5 1.9-5.9 2.3-7.5 3.5-13.1 24.8-71.2 33.5-91 7.4-16.8 10.1-22.8 13.2-29.5 1.9-4.1 5.3-11.6 7.6-16.5 6.6-14.5 49.7-99.8 57.9-114.5 4.1-7.4 8.9-16.2 10.8-19.5 8.1-14.7 25.7-45.7 30.1-53.3 2.7-4.5 4.9-8.5 4.9-8.8 0-.3.8-1.8 1.9-3.2 1-1.5 2.9-4.7 4.3-7.2s5.1-9 8.3-14.5c3.1-5.5 6.9-12 8.3-14.5 1.4-2.5 4.5-7.8 6.9-11.8 2.4-4.1 4.1-7.7 3.8-8.1-.6-1.1-4.2-3.4-35-23.1-64.6-41.3-87.9-59.4-184.5-143.4-34.7-30.1-83.4-80.3-126.3-129.9-49.4-57.2-85.8-104.4-114.2-147.8-4.8-7.4-9.6-14.6-10.6-16.1-1.1-1.5-1.9-2.9-1.9-3.2 0-.3-2.5-4.4-5.5-9.1-3-4.6-5.5-8.7-5.5-8.9 0-.2-1.7-3.3-3.8-6.7-2.2-3.5-5-8.4-6.4-10.9-1.4-2.5-3.4-6.1-4.5-8-1.1-1.9-3.4-6.1-5.1-9.3-1.8-3.1-4.5-8.1-6.1-11-4.2-7.7-25.1-49.3-31.6-63.2-5.3-11.2-17.5-39.1-17.5-40.1 0-.2-.9-2.3-1.9-4.7-7.7-17.1-22-59.3-30.2-88.7-1.6-5.8-3.3-11.9-3.8-13.5-.8-2.6-4.1-15.9-8.6-35-2.2-9.1-8.1-39.4-10.5-53.5-7.1-42.7-10.8-75.8-14.1-127-1.4-22.7-1.4-109.6 0-131.5 4.9-73.9 9.9-115.7 21.2-178.3.5-2.8 1.3-7.6 1.8-10.5 4.7-25.8 18.9-86.9 26.1-111.7 1.2-4.1 2.6-9.1 3.1-11 2.1-7.4 2.8-9.9 6.4-21.5 2-6.6 4.5-14.7 5.5-18 3.6-11.9 12.1-36.7 22-64 3.3-9.1 18.6-47.5 21.3-53.6 1.4-3 3.8-8.6 5.5-12.4 7-16.2 25.4-53.9 33-67.7 1.6-2.9 4.6-8.5 6.7-12.3 15-27.7 38-64.2 58.3-92.4 38.6-53.7 87.3-106.4 138.2-149.2 18.4-15.5 46-36.1 67.7-50.7 12.7-8.5 36.1-23.2 37-23.2.3 0 1.7-.8 3.1-1.9 1.5-1 4.8-3 7.5-4.5 2.6-1.4 6.6-3.7 9-5 11.8-6.6 31.6-16.9 42.7-22.3 14.4-7 32.1-15.3 32.6-15.3.2 0 3.2-1.3 6.6-2.8 3.5-1.6 12.8-5.5 20.8-8.6 8-3.2 15.4-6.2 16.5-6.6 10.2-4.2 48.2-17.3 55-19.1 2.6-.6 25.3-7.2 34-9.8 3-.9 12.6-3.3 28.5-7 68.5-16.1 143.7-22.9 207-18.6z"/><path d="M998.5 230.6c-18.6.9-46.9 3.8-63 6.4-8.8 1.4-24.3 4-30 5-5.3.9-18.2 3.7-33 7.2-8.1 1.8-36.4 9.5-44 11.8-30.3 9.4-71.3 24.4-90 33-3.6 1.7-6.8 3-7 3-1.5 0-42.1 19.8-55.4 27-34.9 19-71.2 42.2-94.5 60.4-54 42.2-92.9 80.7-132.2 131.1-18.1 23.2-43.1 60.2-57.4 85-23.6 40.8-43.4 81.2-59.1 120.5-2.8 6.9-5.4 13.4-5.9 14.5-1.9 4.4-12.1 32-14.6 39.5-.9 2.5-3.1 8.8-4.9 14-1.8 5.2-5.4 16.2-8 24.5-2.5 8.2-5 16.1-5.5 17.5-.4 1.4-1.3 4.5-2 7s-1.7 5.8-2.1 7.5c-.5 1.6-2 7-3.4 12-1.4 4.9-2.9 10.3-3.4 12-1.4 4.6-11 43.8-13.2 54-6.8 31.8-9.9 47.1-12 60-.5 3.3-1.4 8.5-1.9 11.5-12.3 74-17.4 135-17.4 208-.1 56.7 2.5 97.1 9.4 147.5 2.9 21 7.3 45.5 14.1 78 1.3 6.6 10.6 42.5 12.9 50 1.2 3.8 2.5 8.3 3 10 1 3.8 11.3 34.7 13.3 40 .8 2.2 2.9 7.7 4.6 12.2 1.7 4.5 3.7 9.7 4.5 11.5.8 1.8 2.1 4.9 2.9 6.8 13.3 31.8 37 79.8 55 111.5 20.1 35.5 45.8 74.9 68.1 104.5 28.9 38.3 75 93.3 110.5 132 21 22.8 58.6 59.7 79.5 78 11 9.6 23.8 20.9 28.5 25 33.2 29.1 65.1 55.5 84.1 69.6 19.4 14.3 54 37.1 57.4 37.7.8.1 1.2-40.2 1.6-139.3.5-127.8.7-140 2.2-145.2 6.9-22.8 23-39.6 45.3-47l7-2.3h169l7.3 2.3c21.6 6.8 39.5 24.6 44.5 44.2.8 3 1.9 5.6 2.4 5.7.6.2 7.4-6.7 15.3-15.4 16.9-18.8 20.8-22.5 27.9-27 2.9-1.9 4.9-3.8 4.5-4.2-.5-.4-2.7-1.3-4.9-2-56.2-18.2-131.8-66.6-219.1-140.2-39.3-33.2-53-45.9-75.1-70.1-7.6-8.4-20.5-22.4-28.7-31.2-17.1-18.5-29.4-33-42.2-50.1-40.8-54.1-83.3-130-100.4-179-5.4-15.5-11-35.5-14.6-52.5-2.4-10.9-5.1-30.4-6.9-48.5-2.2-22.4-1.6-83.3.9-93.2 1.2-4.8 1.3-7.4.6-11.3-3.1-16.3-1.7-49.1 3.4-80.5.3-1.7 1-6.2 1.6-10 1.4-8.4 5.6-30.2 7.1-36.5 1-4.3 2.1-9 3.9-17.5 1.3-5.7 8-32.4 9.1-36 .5-1.7 2.7-9.5 5-17.5 10.3-36.7 25.7-78.9 39-106.5 16.7-34.9 49.5-78.1 79.3-104.4 47.8-42 93.7-59.7 140.6-54.1 31.3 3.8 70.1 26.7 118 69.7 31.2 28.1 86 86.3 112 118.9 14.4 18.1 25.4 30.8 36.8 42.7 7.5 7.9 22.5 23.9 33.2 35.7 17.8 19.6 101.4 104.2 130.5 132.1 15.6 14.9 50.4 47.1 67.5 62.4 7.4 6.6 15.7 14.1 18.4 16.6 2.8 2.5 12.8 11 22.1 19 61.1 52 101.7 81.5 135.1 98.1 6.8 3.4 12.4 6.7 12.4 7.3 0 .6-8.2 10.5-18.2 22.1-49.4 56.9-77.5 89.3-81.2 93.4-2.3 2.5-7.9 9-12.6 14.5-4.7 5.4-10.7 12.4-13.5 15.5-2.7 3.1-8.8 10-13.5 15.5-10.4 12-36.5 42.1-69.1 79.5-14 16.1-31.5 36.3-99.9 115-22.2 25.6-44.3 51-49.1 56.5-13.9 16-38.4 44.2-47.2 54.4-4.5 5.2-10.2 11.8-12.8 14.5-2.5 2.8-6.1 6.9-8 9.2-1.8 2.2-10.5 12.2-19.1 22.1-8.7 10-15.9 18.6-16 19.1-.2.8 26.4 1.2 90.2 1.5 93.7.4 91.3.3 101.5 4.1 14 5.3 27.6 17.5 34.4 30.7 5.6 10.9 7.5 19.1 7.5 31.9 0 21.1-4.6 30.5-27.2 55.2-7.5 8.3-16.2 17.8-19.2 21.2-3 3.4-19 20.9-35.5 39s-32.7 36-36 39.7c-3.3 3.6-12.1 13.3-19.5 21.3-7.4 8.1-14.5 16-15.8 17.5l-2.2 2.8 46.7 62.3c25.8 34.3 47.4 62.5 48.1 62.8.6.2 1.2-.1 1.2-.7s2.1-5.7 4.6-11.3c6.9-15.6 6.8-15.5 11.9-27.3 2.6-6.1 5.7-13.3 7-16 1.2-2.8 3.7-8.4 5.5-12.5 1.8-4.1 4.3-9.9 5.6-12.8 1.3-2.9 2.4-5.4 2.4-5.7 0-.2 1.3-3.2 2.9-6.7 1.6-3.5 5.9-13.3 9.6-21.8 3.7-8.5 8-18.3 9.6-21.8 1.6-3.5 2.9-6.5 2.9-6.7 0-.3 1.1-2.8 2.4-5.7 1.3-2.9 3.8-8.7 5.6-12.8 1.8-4.1 4.3-9.8 5.5-12.5 1.3-2.8 4.4-10 7-16 6.6-15.3 12.6-28.9 18.1-41.3 1.3-2.9 2.4-5.4 2.4-5.7 0-.2 1.6-3.8 3.5-7.9 1.9-4.2 3.5-7.8 3.5-8.1 0-.2 1.3-3.3 2.9-6.7 1.5-3.5 4.3-9.7 6.1-13.8 1.8-4.1 4.5-10.3 6.1-13.8 1.6-3.5 2.9-6.5 2.9-6.7 0-.3 1.1-2.8 2.4-5.7 1.3-2.9 3.8-8.7 5.6-12.8 1.8-4.1 4.3-9.8 5.5-12.5 1.3-2.8 3.9-8.8 6-13.5 6-13.8 6.7-15.2 10.6-21 9.5-13.8 18.7-20.6 35.4-26.2l7-2.3h170l7 2.3c9.8 3.3 17.3 7.5 24.1 13.5 8.1 7.3 13.3 14.7 18.8 27.3 2.7 6 6.1 13.7 7.7 17.2 1.6 3.5 2.9 6.5 2.9 6.7 0 .3 1.1 2.8 2.4 5.7 1.3 2.9 3.8 8.7 5.6 12.8 1.8 4.1 4.3 9.7 5.5 12.5 1.3 2.7 3.7 8.4 5.5 12.5 1.8 4.1 4.6 10.3 6.1 13.8 1.6 3.4 2.9 6.5 2.9 6.7 0 .4 6.9 16.2 10 23 .5 1.1 3 6.7 5.5 12.5s5 11.4 5.5 12.5c3.6 7.7 23 52.7 23 53.3 0 .4.9 1.8 2 3.2 1.9 2.5 2 2 2-88.4 0-100.5-.3-96 6.6-110.2 7.9-16.6 23.7-29.8 41.9-35.1 5.6-1.7 14.7-1.8 132-1.8 127.7 0 127.7 0 153.5 3.6 35 4.9 78.1 19.9 102.7 35.6 2.9 1.8 5.6 3.3 6 3.3.4 0 2.5-3.4 4.7-7.4 6.8-13 18.1-23.6 32.1-30.1 11.7-5.4 16.9-5.6 106.5-5.1 44.8.3 83.8.4 86.5.3 2.8-.1 100.2-.2 216.5-.2 218.7 0 214.8-.1 224 3.7 11.1 4.6 20.7 11.3 27.1 18.9 2.3 2.7 4.4 4.9 4.7 4.9.4-.1 2.4-2.2 4.4-4.9 7.2-9.3 20.5-17.5 34.3-21.3 7.3-1.9 169.4-1.9 177.5 0 18.7 4.6 36.6 19.6 44.2 37 1.1 2.6 3.1 6.9 4.3 9.7 1.2 2.7 3.7 8.4 5.5 12.5 1.8 4.1 4.3 9.9 5.6 12.8 1.3 2.9 2.4 5.4 2.4 5.7 0 .2 1.3 3.2 2.9 6.7 1.6 3.5 4.3 9.7 6.1 13.8 1.8 4.1 4.6 10.3 6.1 13.8 1.6 3.4 2.9 6.5 2.9 6.7 0 .3 1.6 3.9 3.5 8.1 1.9 4.1 3.5 7.7 3.5 7.9 0 .3 1.1 2.8 2.4 5.7 2 4.6 4.5 10.2 11.2 25.3.7 1.6 4.5 10.4 8.4 19.5 7.5 17.3 12.6 28.9 16.6 37.8 1.3 2.9 2.4 5.4 2.4 5.7 0 .2 1.5 3.6 3.3 7.7 1.9 4 4 8.8 4.8 10.5.8 1.8 1.7 3.3 2.1 3.3.5 0 .8-43.9.8-97.6 0-108.4-.3-102.9 6.8-117.3 7.3-15.1 19.3-26 36.2-32.9 8.9-3.6 10.7-3.7 97-3.7s88.1.1 97 3.7c19.4 8 31.9 20.7 39.7 40.4l2.8 6.9.5 136 .5 136 51.3.3 51.2.2 10.6-7.7c84.7-62.1 170.5-137.5 234.6-206.3 42-45.1 85.1-99.7 123.7-156.9 7-10.3 30.1-47.6 30.1-48.6 0-.1 2.5-4.7 5.6-10.1 5.6-9.8 29-56.5 35.1-69.9 12.2-26.9 24.9-58.7 33.4-84 1.7-5 3.4-9.9 3.9-11 .5-1.1 2.5-7.4 4.5-14s4-13.1 4.4-14.5c.5-1.4 1.4-4.5 2.1-7 .7-2.5 1.7-5.9 2.1-7.5 6.5-22.4 16.1-62.7 18.9-79.5.5-3 1.4-8.2 2-11.5 5.1-28.9 8.9-61.8 12.2-106.5 1.6-21.8 1.6-113.6 0-138.5-2.3-36.4-6.1-77-9.2-98.5-.5-3.6-1.4-10.3-2-15-4.1-31.2-12.8-79.6-19.6-109-1.5-6.3-3-13.3-3.5-15.5-1.1-5.4-5.9-24.1-12.4-48-.7-2.8-3-10.4-5-17s-4-13.4-4.4-15c-1.3-4.9-15.6-47.3-19.1-56.5-6.5-17.3-13.2-34.6-14.5-37.5-.7-1.7-2.2-5.1-3.4-7.7-1.1-2.6-2.1-5-2.1-5.2 0-.3-1.6-4-3.5-8.3-2-4.3-4-8.7-4.5-9.8-.5-1.1-5.4-11.2-10.9-22.5-41.1-84.6-97-161.5-168.2-231.5-43.4-42.6-82.9-72.9-141.9-108.5-24.4-14.7-63.2-33.8-94-46.2-9.6-3.8-18.4-7.4-19.5-7.8-1.9-.9-15.4-5.6-28-9.8-3.3-1.2-13.2-4.1-22-6.6-8.8-2.6-17.3-5-19-5.5-9.2-2.7-38.5-9.1-52.9-11.6-40.6-6.9-70.2-9.5-110.6-9.5-37.7 0-73.9 2.9-99 7.9-12.7 2.6-17.3 3.6-26.5 5.8-10.9 2.6-10.6 2.5-28 8.2-15.8 5.1-26.7 9.2-34.9 13-3.7 1.7-7 3.1-7.2 3.1-.6 0-24.8 12.1-29.4 14.7-52.7 30-93.8 64.5-143.8 120.3-38 42.4-66.7 72.1-97.7 100.8-27.1 25.2-46.7 45.5-63 65.3-18.2 22-29.8 34.9-43.1 47.9-35.1 34.4-98.6 95.4-110.5 106.1-7 6.3-21.8 20-33 30.4-33.2 31-46.8 42.7-67.4 58.1-23.8 17.8-54.2 37.8-85.6 56.4-11.1 6.6-38.1 20.3-47.4 24.1-14.5 5.9-25.3 7.8-31 5.5-5.3-2.3-17.4-9.9-29.5-18.6-28.8-20.9-48.1-32-77.3-44.4-9.5-4-31.3-11.8-38.2-13.7-19.5-5.2-24.1-6.3-38.5-9.2-14.5-2.9-34.9-5.8-54.5-7.8-18.7-1.9-67.1-1.6-84 .5-48.8 6.1-83.6 16.3-125.5 36.9-17.6 8.6-24.3 12.5-63.5 36.3-9.9 6-20.9 12.4-24.5 14.1-13.6 6.5-14.7 6.8-27 6.7-10.4-.1-12.5-.5-22.5-3.8-36.4-12.2-73.2-37.1-150-101.9-11-9.3-23.6-19.9-28-23.5-4.4-3.7-16.1-14.6-26-24.2-9.9-9.6-27.7-26.5-39.5-37.4-30.8-28.6-70.1-65.7-87.3-82.6-14.7-14.3-24.7-25.3-46-50.2-19.4-22.9-34.5-38.8-69.6-73.8-19-19-42.7-43.3-52.6-54-56.1-61.1-130.8-129.7-169.5-155.7-23.2-15.5-55.2-31.1-84-40.7-7.7-2.6-30.6-9-35-9.9-1.4-.2-6.1-1.2-10.5-2.1-18.9-3.8-24.9-4.7-46-7.1-12.4-1.4-64.6-2.7-80-1.9zm2583 419.2c38.7 8.9 72.5 28.9 107.5 64.1 51.9 52 78.7 102.8 108 204.3 3.3 11.8 12.6 47.7 14 54.8.5 2.5 2.1 9.9 3.5 16.5 4.4 20.5 6.5 32.8 10.7 63.5 1.7 12.5 1.7 54 .1 59.5-1 3.2-1 4.8.1 8 4.8 13.9 4.6 77.5-.4 114-2.2 15.8-3.9 24.7-8.2 43.5-4 17.4-13.9 47.2-20.9 62.7-1 2.4-1.9 4.5-1.9 4.9 0 .3-4 8.7-8.9 18.7-27 55.3-67.5 118.4-101.1 157.7-5.1 6-19.7 22-55.3 60.6-21.1 22.9-46.9 46.1-92 82.8-20.6 16.6-22.5 18.2-40.2 31.5-20.2 15.3-63.3 45.1-65.1 45.1-.3 0-2.4 1.3-4.7 2.9-14.7 10-49.4 27.8-71.2 36.5-3.8 1.6-7.9 3.2-9 3.7-1.1.4-5.7 2-10.2 3.4l-8.3 2.6v4.5c0 2.4-.3 4.4-.7 4.3-.5 0-2.3-1.9-4.2-4.2-3.2-4-35.3-41.1-45.6-52.7-2.7-3.1-8.7-9.9-13.1-15.1-4.5-5.2-14.7-16.8-22.6-25.9-7.9-9.1-19-21.9-24.7-28.5-5.7-6.6-14.3-16.4-19-21.9-4.7-5.4-10.6-12.2-13.1-15.1-2.5-2.8-23.6-27.2-47-54.1-23.4-26.8-47.2-54.3-53-60.9-5.8-6.7-17.7-20.4-26.5-30.5-8.8-10.1-19.1-22-23-26.4-10.1-11.7-33.4-38.5-43.4-50-4.7-5.4-10.6-12.2-13.1-15.1-2.5-2.8-8.4-9.7-13.1-15.1-11.7-13.4-58.7-67.4-90.2-103.8-24.4-28.1-27.7-32.6-23.4-32.6.7 0 4.2-1.4 7.8-3.1 17.9-8.7 45.7-26.7 72.2-46.8 7.7-5.8 15.1-11.5 16.6-12.6 8.8-6.6 45.4-37 63.1-52.5 80.9-70.6 170.5-158.5 244.7-240 7.8-8.5 16.2-17.5 18.8-20 2.6-2.5 10.6-11.7 17.8-20.5 100.9-123.2 182.7-193.7 236.2-203.4 10.3-1.9 11.6-1.9 27.5-1.6 11.1.2 18.1.9 24.5 2.3z"/><path d="M853.5 1848.2c-.3.7-.4 100.1-.3 220.8l.3 219.5h145l.3-54.4.2-54.3 10.3-11.5c5.6-6.4 12.8-14.5 16-18.2 3.2-3.6 6.2-6.7 6.6-6.9.5-.2 25.5 32.6 55.7 72.8l54.9 73h85.3c69.9 0 85.3-.2 84.9-1.3-.3-.7-7.9-11.2-16.9-23.3-16.7-22.3-38.7-51.7-102.3-136.9-19.7-26.4-42-56.3-49.7-66.5-7.6-10.2-13.8-19-13.8-19.6 0-.7 7.5-9.5 16.8-19.6 9.2-10.1 24.8-27.4 34.7-38.3 9.9-11 20.7-22.9 24-26.5 3.3-3.6 11.9-13.1 19-21 7.2-7.9 15.7-17.4 19-21 3.3-3.6 11.9-13 19-21 7.2-7.9 19.4-21.4 27.1-29.9 7.8-8.6 14-15.9 13.7-16.4-.2-.4-36.3-.7-80.1-.7h-79.8l-15.5 17.2c-8.5 9.5-28.3 31.5-43.9 48.8-29.8 33.1-34.1 37.9-59.6 66-8.8 9.7-17.5 19.5-19.5 21.8-2 2.3-4.1 4.2-4.7 4.2-.9 0-1.3-20.3-1.4-78.8l-.3-78.7-72.3-.3c-57.3-.2-72.4 0-72.7 1zM1523.1 1849.2c-1 2.4-4.6 10.7-8.7 19.6-1.3 2.9-2.4 5.5-2.4 5.7 0 .3-1.6 3.9-3.5 8.1-1.9 4.1-3.5 7.7-3.5 7.9 0 .3-1.1 2.8-2.4 5.7-1.3 2.9-4.5 10.2-7.1 16.3-2.6 6-5.8 13.4-7.1 16.3-1.3 2.9-2.4 5.4-2.4 5.7 0 .2-1.3 3.2-2.9 6.7-1.6 3.5-5.9 13.3-9.6 21.8-7.8 18-27 62.1-28.9 66.5-.8 1.6-3.5 7.9-6.1 14-2.6 6-5.8 13.5-7.2 16.5-1.4 3-4.4 10-6.8 15.5-7.6 17.7-14.6 33.8-17.6 40.3-1.6 3.5-2.9 6.5-2.9 6.7 0 .3-1.1 2.8-2.4 5.7-1.3 2.9-4.5 10.2-7.1 16.3-2.6 6-5.3 12.3-6 14-7.3 16.3-10.5 23.6-10.5 24 0 .2-1.4 3.5-3.1 7.2-1.7 3.7-5 11.3-7.4 16.8-2.4 5.5-5.5 12.7-6.9 16-3.3 7.5-4 9.1-5.9 13.5-1.7 4.1-7.9 18.2-11.3 25.8-1.3 2.9-2.4 5.4-2.4 5.7 0 .5-6.8 15.6-8 17.7-.6 1-1 2.2-1 2.8 0 .7 24.6.9 75.3.8l75.2-.3 5.8-15c3.3-8.3 6.9-17.7 8.2-21 1.3-3.3 5.4-13.8 9-23.3l6.7-17.2 83.6.2 83.6.3 6.4 16.5c3.5 9.1 9.3 24.1 12.9 33.5 3.5 9.3 7.2 19 8.2 21.5l1.7 4.5 75.5.3c41.5.1 75.9 0 76.6-.2 1.3-.5 1.2-.7-6.4-18.1-2-4.4-4.3-9.8-5.3-12-1-2.2-3.9-9-6.5-15-2.6-6.1-5.8-13.4-7.1-16.3-1.3-2.9-2.4-5.4-2.4-5.7 0-.2-1.3-3.2-2.9-6.7-1.6-3.5-5-11.3-7.6-17.3-2.6-6.1-5.5-12.8-6.5-15-1-2.2-6.4-14.6-12-27.5s-11-25.3-12-27.5c-1-2.2-3.9-9-6.5-15-2.6-6.1-6-13.8-7.6-17.3-1.6-3.5-2.9-6.5-2.9-6.7 0-.3-1.3-3.4-3-7-1.6-3.6-3-6.8-3-7 0-.4-6.9-16.2-10-23-3.1-6.7-10-22.6-10-23 0-.2-1.1-2.8-2.4-5.7-3.2-7.3-8.7-19.6-13.1-29.8-2-4.7-4.3-10-5.1-11.8-.8-1.7-2-4.7-2.8-6.5-.7-1.7-3-7-5.1-11.7-5.3-12-6.6-15.1-12-27.5-2.6-6.1-5.8-13.4-7.1-16.3-1.3-2.9-2.4-5.4-2.4-5.7 0-.2-1.6-3.8-3.5-7.9-1.9-4.2-3.5-7.8-3.5-8.1 0-.3-1.6-3.9-3.5-8.1-1.9-4.1-3.5-7.7-3.5-8 0-.2-.9-2.3-2-4.7-1-2.3-4.4-9.8-7.3-16.7l-5.4-12.5-73.2-.3-73.1-.2-.9 2.2zm78.9 160.3c3.7 9.6 7.4 19.5 10 26 .5 1.1 3.8 9.9 7.5 19.5 3.6 9.6 8.1 21.3 10 26 6.4 16.5 8.5 22 8.5 22.5 0 .3-18.9.5-42 .5-31.8 0-42-.3-42-1.2 0-.9 9.9-27.4 14-37.3.5-1.1 3.8-9.9 7.5-19.5 3.6-9.6 8.1-21.3 10-26 1.8-4.7 4.5-11.7 6-15.5 1.5-3.9 3.2-7.6 3.8-8.4 1.3-1.5.7-2.7 6.7 13.4zM1884.5 1849.2c-.3 1.3-.4 100.6-.3 220.8l.3 218.5h148l.5-54 .5-54 47.5-.6c47.1-.6 52.7-1 72.6-4.8 29.1-5.6 55.6-16.3 77.7-31.3 11.9-8.1 30.4-26.6 38.4-38.4 18.7-27.6 26.5-54.5 26.5-91.9 0-37.5-7.7-64.1-26.5-92-10.4-15.3-32.4-35.8-47.7-44.4-13.8-7.7-32.4-15.9-43.5-19.1-14.4-4.1-24.3-6.2-40.5-8.7-9.2-1.5-26-1.7-131.7-2l-121.2-.4-.6 2.3zm226 115.1c10.3 3 16.5 6.5 23 13 9.4 9.5 13.5 20.5 13.5 36.2 0 15.7-4.1 26.7-13.5 36.1-6.9 6.9-13.6 10.5-25 13.4-7.2 1.8-11.3 2-41.7 2H2033v-103.1l35.8.3c30.1.3 36.6.7 41.7 2.1zM2325 2068v221l73.8-.2 73.7-.3v-441l-73.7-.3-73.8-.2v221zM2504.5 1848.2c-.3.7-.4 26.5-.3 57.3l.3 56 63 .3c58 .2 63.1.3 64.3 1.9 1 1.4 1.2 34.9 1.2 163.3v161.5l74 .3 74 .2.2-163.2.3-163.3 64-.5 64-.5v-114l-202.3-.3c-161.3-.2-202.4 0-202.7 1zM3016.6 1852.6c-1.4 3.1-2.6 5.8-2.6 6 0 .2-1.6 3.8-3.5 8-1.9 4.1-3.5 7.7-3.5 7.9 0 .3-1.3 3.4-3 7-1.6 3.6-3 6.8-3 7 0 .4-3.5 8.5-10.6 24.3-1.3 2.9-2.4 5.4-2.4 5.7 0 .2-1.6 3.8-3.5 7.9-1.9 4.2-3.5 7.8-3.5 8.1 0 .2-1.3 3.3-2.9 6.7-1.5 3.5-4.3 9.7-6.1 13.8-1.8 4.1-4.3 9.9-5.6 12.8-1.3 2.9-2.4 5.5-2.4 5.7 0 .2-1.2 3-2.6 6.2-1.5 3.2-3.2 7.1-3.9 8.8-.7 1.6-2.9 6.8-5 11.5-5.3 11.9-6.6 15-12 27.5-4.9 11.3-5.8 13.4-11.8 27-1.9 4.4-5.6 12.9-8.2 19-2.6 6-5.5 12.8-6.5 15-1 2.2-3.2 7.4-5 11.5-1.8 4.1-4.3 9.7-5.5 12.5-1.2 2.7-4.4 9.9-7 16-2.6 6-5.3 12.3-6 14-7.4 16.4-10.5 23.6-10.5 24 0 .3-1.6 3.9-3.5 8.1-1.9 4.1-3.5 7.7-3.5 7.9 0 .3-1.1 2.8-2.4 5.7-1.3 2.9-3.8 8.7-5.6 12.8-1.8 4.1-4.6 10.3-6.1 13.8-1.6 3.4-2.9 6.5-2.9 6.7 0 .3-1.8 4.4-3.9 9.2-3.3 7.5-9.1 20.8-19.7 45.3-1.3 3-3.1 6.8-3.9 8.3-.8 1.6-1.3 3.3-.9 3.8.3.5 31.2.9 74.8.9 58.3 0 74.6-.3 75.3-1.3.5-.6 1.5-2.6 2.1-4.2 1.4-4.1 13.7-36.1 17.7-46.5 1.8-4.7 4.8-12.2 6.5-16.8l3.2-8.2 83.6.2 83.6.3 2.4 6c3.5 8.7 3.4 8.4 10.5 27 3.6 9.3 8.8 22.8 11.5 30l5 13 75.8.3c41.7.1 76.1-.1 76.6-.6.4-.4-.1-2.6-1.1-4.7-1.1-2.2-2.6-5.6-3.4-7.5-3.6-8.5-9.2-21.3-14.3-32.8-1.3-2.9-2.4-5.4-2.4-5.7 0-.2-1.6-3.8-3.5-7.9-1.9-4.2-3.5-7.8-3.5-8.1 0-.2-1.3-3.3-2.9-6.7-1.6-3.5-6.3-14.4-10.6-24.3-8-18.7-8.8-20.5-15-34.5-2.1-4.7-4.3-9.9-5-11.5-.7-1.7-2.2-5-3.3-7.5-1.1-2.5-4.8-11-8.2-19-3.4-8-7.5-17.3-9.1-20.8-1.6-3.4-2.9-6.5-2.9-6.7 0-.3-1.6-3.9-3.5-8.1-1.9-4.1-3.5-7.7-3.5-7.9 0-.3-1.1-2.8-2.4-5.7-1.3-2.9-4.5-10.3-7.1-16.3-2.6-6.1-5.8-13.4-7.1-16.3-1.3-2.9-2.4-5.4-2.4-5.7 0-.2-1.3-3.2-2.9-6.7-1.6-3.5-5.9-13.3-9.6-21.8-7.8-18-27-62.1-28.9-66.5-.8-1.7-3.5-8-6.1-14-2.6-6.1-6-13.8-7.6-17.3-1.6-3.5-2.9-6.5-2.9-6.7 0-.3-1.1-2.8-2.4-5.7-2-4.5-6.6-15.1-17.6-40.6l-1.9-4.2h-146l-2.5 5.6zm76 145.1c.4 1 5.1 13.5 10.6 27.8s13.4 34.8 17.5 45.5c4.1 10.7 8.5 22.2 9.9 25.5 1.3 3.3 2.4 6.3 2.4 6.7 0 .5-18.9.8-42 .8-35.3 0-42-.2-42-1.4 0-.8 1.5-5.2 3.4-9.8 3.2-7.8 7.6-19.2 23.3-60.3 7.1-18.7 7-18.3 10.7-27.3 1.4-3.5 2.6-7 2.6-7.8 0-2 2.9-1.7 3.6.3zM3386 2068v221l173.3-.2 173.2-.3.3-54.5c.1-30 0-56-.3-57.7l-.6-3.3-98.7-.2-98.7-.3-.3-162.8-.2-162.7h-148v221zM3787.8 2322.3c-4 8.4-16.4 19.9-27.3 25.2-9.4 4.6-17.7 6.6-30.9 7.4l-11 .6 8.5 5c22.8 13.4 56 43.2 64.7 58 6.9 11.8 8.7 18.9 8.7 34 0 14.1-1 19-5.7 28.8-4.5 9.3-9.4 15.1-26.8 32-8.9 8.7-16 15.9-15.8 16.1.1.1 3.3 1.7 6.9 3.5 18.1 9 30.4 24.6 35.5 45.1 2.1 8.6 2 183.9-.1 192.9-2 8.5-6.8 18.3-12.4 25.4-11.7 15.1-49 38.9-80.6 51.7-4.4 1.8-8.9 3.6-10 4.1-2.7 1.2-20.2 7-24.2 8-1.8.5-4.8 1.3-6.5 1.8-14.6 3.9-34.4 7.7-53.8 10.2-12.7 1.7-62.7 1.7-74.5.1-41.4-5.8-69.8-14.3-102-30.6-15-7.6-36.2-21.2-49-31.5-10.5-8.5-33.6-31.8-40.4-40.9-3-4-5.9-7.2-6.3-7.2-.4 0-.8 10-.8 22.3 0 28.2-1.3 36-8.1 48.8-8.8 16.5-24.1 28.3-42.9 33-7.3 1.9-10.7 2-49.7 1.7l-41.8-.3-7.9-2.8c-10.7-3.8-19.9-10-27.8-18.8-6-6.6-32.8-39.4-89.8-109.7-10.7-13.3-19.8-24.1-20.2-24.2-.5 0-.8 22.2-.8 49.3 0 46.6-.1 49.6-2.1 56.7-6.1 22.4-21.8 39.4-43.4 46.8-8 2.8-15.4 3.2-58.9 3.2-50.2 0-53-.3-66.8-6.9-7.2-3.5-17.8-12.1-22.3-18-1.6-2.2-3.3-4-3.6-4.1-.4 0-2.4 2.3-4.5 5-7.7 10.1-21 18.4-35 22-7.1 1.9-11.1 2-53.9 2-42.2 0-46.8-.2-53.7-1.9-12.9-3.3-21.6-8.1-30.7-17-8.5-8.3-14-17.8-18.4-32.1-.8-2.4-1.3-47.8-1.7-149l-.5-145.5-28.9-.3c-19.5-.1-29.3.1-30 .8-.8.8-1.3 45.8-1.6 147.3l-.5 146.2-3.2 8c-9.3 22.9-26.8 37.8-50.1 42.4-7.1 1.5-93.3 1.5-100.4 0-20-4-37.8-17.2-46.5-34.4-2.2-4.3-3.4-7.1-5.5-12.5-1.1-2.8-1.4-30.8-1.6-149.4-.2-105.5-.5-146.3-1.4-147.3-.9-1.1-6.8-1.3-30.2-1.1l-29.1.3-.5 145.5c-.4 104.1-.9 146.5-1.7 149-.6 1.9-1.6 4.9-2.1 6.7-4.5 14.3-18.1 29.7-32.9 37.2-13 6.6-17.1 7.1-61.3 7.1-36.1 0-40.4-.2-47.3-2-10.5-2.6-19.7-7.4-26.8-13.8-3.2-2.9-25.5-29.5-49.6-59-61.3-75.3-65.3-80.2-66.3-80.2-.5 0-1 23.1-1.3 51.2-.3 45-.6 51.9-2 56.3-8.1 23.6-25.1 39.6-48.5 45.6-6.9 1.7-11.5 1.9-53.2 1.9s-46.3-.2-53.2-1.9c-14.1-3.6-26.2-11-34.5-20.9-2.6-3.2-4.8-5.9-4.9-6-.1-.2-3.5 3-7.4 7.2-8.5 8.9-17 14.6-27.7 18.3l-7.8 2.8-48.4.3c-45.5.3-48.8.2-56.2-1.7-7.2-1.8-16.1-5.6-21.5-9.1-1.9-1.2-2.5-1.1-5.3.9-4.2 3.1-14.3 7.1-21.6 8.7-8.7 1.9-101.4 1.9-110 0-13.5-3-22.6-7.9-31.9-17.1-5.4-5.3-21.8-28.1-61.4-85.5-10.2-14.8-11.5-16.1-14.6-15.5-1.2.2-2.4.4-2.8.4-.5.1-.8 12-.8 26.5 0 26.8-.9 38.4-3.6 46.6-6.9 20.4-22.3 35.8-43.5 43.2-6.3 2.3-7 2.3-56.9 2.3h-50.5l-8.9-2.9c-20.1-6.6-34.9-21.2-42.4-41.8l-2.7-7.3-.3-65c-.2-39.8-.7-65.4-1.3-66-.6-.6-3 1.1-6.7 4.6-17.6 17.1-40.1 30.9-67.7 41.6-7.1 2.8-14.8 5.6-17 6.3-31.7 9-51.8 11.8-92.5 12.9l-25.5.6-.6 32.5c-.7 35.1-.7 35.5-6.8 48.2-6.2 12.7-18.5 24.8-31.5 30.7-2.7 1.3-8.3 3.1-12.4 4.2-6.9 1.7-11.5 1.9-53.7 1.9-52 0-54.5-.3-68.8-7.7-10.3-5.3-22.9-18.1-27.9-28.4-8-16.2-7.3 5.1-7.3-232.6 0-199.4-.1-212.1-1.7-210.5-.9.9-3 4.2-4.6 7.2-1.6 3-4.9 9.3-7.4 14-13.1 24.6-42.8 83.2-49.6 98.1-1.7 3.5-5.7 12.2-9.1 19.2-3.4 7.1-6.1 13.1-6.1 13.3 0 .2-1.3 3.2-2.8 6.6-5.5 12-13.1 30.3-16.3 38.8-8.1 22-17.5 49.4-23.3 68-2 6.3-4 12.8-4.5 14.5-2.4 7.5-10.2 36.4-13.4 49.5-13 53-19.9 97.6-22.8 146-1.3 21.8-.6 79 1.1 93.5.5 4.9 1.5 13 2.1 18 6.1 51.6 20.7 105.9 41.6 154.5.8 1.9 1.9 4.4 2.3 5.5 6.3 15 29.1 58.6 37.4 71.5 1.3 1.9 6 9.3 10.5 16.3 19.3 30.2 42.7 59.7 70.1 88.1 18.8 19.5 77.6 73 104.5 95.2 11.6 9.5 32 26.3 45.5 37.4 39.6 32.7 84.7 68.8 108 86.5 5 3.8 16.2 12.4 24.8 19 8.6 6.7 22.2 17 30.1 23 14.4 11 17.7 13.5 32.6 25 4.4 3.4 18.6 14.2 31.5 24.1 12.9 9.9 27.8 21.3 33 25.3 29 22.2 40 30.5 80 59.8 14 10.2 28.7 21 32.5 23.8 6.5 4.8 16.1 11.8 33.1 24 64.8 46.6 112 78.8 180.8 123.4 21.4 13.9 45.4 29.7 53.5 35 28.8 19.2 143 95 164.6 109.3 25.1 16.6 87.8 57.1 94.5 61.1 2.5 1.4 10.1 6.2 17 10.6 6.9 4.4 14.3 9.1 16.5 10.4 2.2 1.3 12.3 7.5 22.5 13.7 25.2 15.4 31.9 19.4 46.5 27.7 13 7.4 18 10.1 33 17.6 14.9 7.5 38.3 18.7 39.1 18.7.2 0 2.6.9 5.2 2.1 10 4.4 11.9 5.2 18.2 7.6 15.1 5.8 23.1 8.7 34 12.3 12.3 4.1 39.4 12 47.3 13.9 28.1 6.6 41.4 8.9 76.7 13.3 14.3 1.8 82.6 1.8 97 0 30.9-3.8 55.7-8.2 74-13.2 21.4-5.8 41.5-12.2 57.1-18 8.8-3.3 10.1-3.8 15.9-6.3 1.9-.8 6.9-2.9 11-4.6 4.1-1.8 9.3-4 11.5-4.9 7.9-3.3 49.2-24.1 58.9-29.6 5.4-3.1 10-5.6 10.2-5.6.4 0 32.1-18.6 40.9-24 20.2-12.4 41.1-25.6 91-57.8 69.3-44.8 132.9-86.1 142-92.2 3.9-2.6 27.9-18.6 53.5-35.6 65.4-43.3 160.9-108.1 202.5-137.4 9.9-6.9 25.7-18 35-24.5 36.2-25.3 55.8-39.2 93.5-66.3 24.7-17.8 27.3-19.7 66.5-48.3 33.2-24.3 48.1-35.3 90-66.8 26-19.4 41.3-31.1 85.5-65 4.7-3.6 16.8-13 27-21s21.1-16.5 24.3-19c3.3-2.5 7.6-6 9.7-7.6 2-1.7 25.5-19.9 52.1-40.5 112.6-87.3 152.9-121.3 205.8-173.5 45.3-44.7 75.9-80.7 104.1-122.5 8.7-13 23-35.6 23-36.5 0-.2 2-3.7 4.5-7.9 4.2-7.2 22.5-43.7 22.5-45 0-.4.9-2.8 2.1-5.4 1.2-2.6 2.5-5.6 2.9-6.7 15.7-38.7 26.8-79.3 32.1-118.5 5.6-41.1 5.6-98.7 0-148-2.8-24.7-7-50.6-13.1-81.5-3.4-17.5-11.5-50.8-17-70.5-5.9-21.1-7.6-27.1-10.7-37-4.2-13.8-17.4-53.7-20.9-63.5-7.2-19.7-15.2-41-16.9-45-.7-1.7-3.8-9.4-6.8-17.2-5.3-13.5-12.8-31.4-20.4-48.8-2-4.4-4.1-9.4-4.8-11-.8-1.7-3.4-7.4-5.9-12.9-2.5-5.4-4.6-10-4.6-10.2 0-.6-12.8-27-22.6-46.9-4.2-8.5-8.2-15.5-8.9-15.5-.6 0-1.8 1.5-2.7 3.3zM2464.5 3423.5c31.8 1.4 38.6 2.1 52.1 4.9 19 4 34.8 12.2 42.2 21.9 5.3 7 7.2 13.1 7.2 23.2 0 5.2-.6 11.8-1.4 14.7-5.2 19.8-19.7 43.8-42.6 70.3-4.7 5.5-14 16.3-20.6 24-11.4 13.3-29.8 36-42.9 53-47.7 61.9-68.4 86.5-97.5 115.6-30.2 30.4-51.7 47.7-72 58.2-5.8 3-11.4 5.7-12.5 6-1.1.3-5.3 1.7-9.2 3.1-9.8 3.4-22.9 5.6-33.8 5.6-30.4 0-60.4-13.3-93-41.1-17.9-15.3-34.8-33.5-93.5-100.4-3-3.4-8.9-10-13-14.7-4.1-4.6-14.5-16.3-23-25.9-63.6-71.5-82.9-96.5-96.6-125.4-20.7-43.8-13.4-71.6 22.4-84.9 14.6-5.5 31.5-7.1 90.2-8.6 58.1-1.6 91.2-1.7 258.5-1.3 109.5.2 155.2.7 179 1.8z"/><path d="M3555 2385.1c-13.7.7-35 3.9-45 6.6-3 .8-6.8 1.8-8.5 2.3-4.4 1.2-11.2 3.5-17.5 5.9-3 1.2-6.8 2.7-8.5 3.3-1.6.6-7 3.2-12 5.8-56.5 29-93.5 75.4-108 135.5-7 28.7-7.6 68.8-1.4 98.6 6.3 30.7 23 65.5 42.8 88.9 30 35.5 72.4 60.8 119.1 70.8 13.9 3 21.7 4 39.4 5.3 28.8 2.1 68.1-2.4 96.1-11.1 18.2-5.7 28.5-9.8 42.5-17 13-6.6 15.2-7.9 26.5-15.8l11-7.7v-164h-71.6l.1 61.7c0 34-.2 62.9-.6 64.2-1 4.1-21.1 13-40.9 18.1-22.7 5.9-58.3 6.1-83 .5-16.3-3.6-38.6-13.9-52-24-29.8-22.4-48.2-52.5-55-90.5-1.7-9.5-2-40.7-.4-50.4 5.1-32.3 17.1-56.4 38.8-78.2 28.3-28.5 63.4-42 108.5-42 26.6 0 46.5 4.3 68.4 14.8 14.4 6.8 31.7 18.7 39.2 26.8 5.4 5.8 4.1 6.6 29.6-18.1 12.8-12.4 23.4-23.2 23.4-23.9 0-2.1-21.1-21.7-31-28.7-16.6-11.8-43.5-24.2-64.9-29.9-25.5-6.8-55.3-9.5-85.1-7.8zM853.5 2391.2c-.3.7-.4 93.5-.3 206.3l.3 205h76l.3-59.3.2-59.2h50.3c61.7 0 80.5-1.4 104-7.5 26.7-6.9 47.2-16.9 65.4-31.6 17.7-14.5 32.3-35.8 39.6-57.9 5.9-17.6 7.2-26.8 7.1-50 0-16.6-.4-23.5-1.8-30.5-7.6-37.9-27.7-67.7-59.1-87.7-18.1-11.5-45.2-21.5-67.5-24.9-22.8-3.5-36.2-3.9-125.3-3.9-70.1 0-88.9.3-89.2 1.2zm195.5 66.2c34.8 6.7 56.9 22.7 65.9 47.9 4.1 11.3 4.6 15 4.6 31.7s-.5 20.4-4.6 31.7c-3.3 9.3-8.1 16.6-15.9 24.3-8.8 8.7-15.7 13-27.8 17.6-19.6 7.3-34.2 8.6-95.2 8.2l-45.5-.3-.3-80.5c-.1-44.3 0-81.1.3-81.8.8-2.2 106.7-1.1 118.5 1.2zM1273.5 2391.2c-.3.7-.4 93.5-.3 206.3l.3 205 37.8.3c29.8.2 37.7 0 37.7-1v-58.9c0-31.7.2-58.4.6-59.3.6-1.4 5.7-1.6 54.4-1.6h53.8l5.8 8.2c7.1 10 6.7 9.5 23.9 34.3 7.6 11 23 33.2 34.2 49.2l20.5 29.3h40.4c24.1 0 40.4-.4 40.4-.9s-4.2-6.9-9.3-14.3c-5.1-7.3-14.7-21-21.2-30.3-6.5-9.4-20.6-29.6-31.3-45-10.7-15.4-22.1-31.7-25.4-36.2-5.5-7.7-6.4-10.3-3.5-10.3.7 0 5.8-2.4 11.5-5.3 30.6-15.6 52.4-39.4 64-69.7 11.5-30.3 12.2-72.1 1.6-103.8-9.1-27.2-27.4-50.8-51.9-66.9-7.6-5.1-27.6-15.3-29.8-15.3-.7 0-1.7-.4-2.3-.8-.9-.8-8.6-3.3-20.4-6.6-8.8-2.5-22.3-4.6-38.5-6.1-20.6-2-192.3-2.2-193-.3zm193 65.7c2.8.6 7.3 1.6 10 2.2 24.9 5.3 44.5 18.9 54.7 37.9 2.9 5.5 6.4 16.5 7.8 24.4 2 11.6.7 33.6-2.5 43.1-9.5 28.5-31.9 46.1-66.5 52.5-11.2 2-35.6 3-76.5 3-31.4 0-42.4-.3-43.3-1.2-.9-.9-1.2-20.2-1.2-80.9 0-43.9.3-80.5.6-81.4.6-1.6 4.9-1.7 56.3-1.2 35.5.3 57.4.9 60.6 1.6zM1702.5 2391.2c-.3.7-.4 93.5-.3 206.3l.3 205h75v-412l-37.3-.3c-29.3-.2-37.4 0-37.7 1zM1889.5 2391.2c-.3.7-.4 93.5-.3 206.3l.3 205 37.3.3c29.4.2 37.2 0 37.2-1v-138.5c0-78 .4-137.4.9-137.7.5-.3 10 10.7 21.2 24.6 11.2 13.8 23.8 29.2 27.9 34.3 4.1 5.1 14.7 18.1 23.5 29 16.6 20.5 67 82.5 75.5 93 2.7 3.3 15.1 18.7 27.7 34.1 12.5 15.5 29.1 35.9 36.7 45.3l13.9 17.1 31.1-.2 31.1-.3v-412h-75l-.3 138.2c-.2 109.7-.5 138.3-1.5 138.2-.6 0-8.3-8.9-16.9-19.7-8.6-10.8-28.2-35-43.4-53.7-15.2-18.7-34.6-42.6-43-53-21.8-27.1-29-36-43.3-53.5-7-8.5-17.4-21.4-23.2-28.5-5.8-7.2-12.9-15.9-15.8-19.5-2.9-3.6-12.2-15.1-20.6-25.5-8.4-10.5-16.3-20-17.5-21.3-2.1-2.2-2.2-2.2-32.6-2.2-23.4 0-30.6.3-30.9 1.2zM2311.7 2390.7c-.4.3-.7 15-.7 32.5v31.8l67.8.2 67.7.3.5 173.5.5 173.5 36 .3c19.8.1 37 0 38.3-.3l2.2-.5v-172.7c0-95 .3-173 .8-173.5.4-.4 30.9-.9 67.7-1l67-.3v-64l-173.6-.3c-95.4-.1-173.9.1-174.2.5zM2717.5 2391.2c-.3.7-.4 93.5-.3 206.3l.3 205h75v-412l-37.3-.3c-29.3-.2-37.4 0-37.7 1zM2904.5 2391.2c-.3.7-.4 93.5-.3 206.3l.3 205 35.5.3c19.5.1 36.4 0 37.5-.2 2-.5 2-1.2 1.7-139.1-.1-79.9.2-138.5.7-138.5.5 0 16.1 18.8 34.7 41.7 42.3 52 44.4 54.6 63.6 78.4 16.7 20.6 20.6 25.5 60.8 74.9 26 31.9 40.6 50 57.7 71.3l9.5 11.7 31.2-.2 31.1-.3v-412h-75l-.5 139-.5 139-8.2-10c-4.5-5.5-18.6-22.8-31.3-38.5s-25.3-31.2-28-34.5c-4.6-5.7-54.1-66.7-77-94.9-5.8-7.1-15.4-19.1-21.5-26.6-6-7.5-22-27.2-35.5-43.8l-24.5-30.2h-30.8c-23.7 0-30.9.3-31.2 1.2z"/></svg>